<svg xmlns="http://www.w3.org/2000/svg" viewBox="0 0 45 45" width="45" height="45"><title>Medieval wK</title><defs><linearGradient id="medieval-wK" x1="0" y1="0" x2="1" y2="0"><stop offset="0" stop-color="#F2E6C9"/><stop offset=".35" stop-color="#DCC9A0"/><stop offset="1" stop-color="#B9A57A"/></linearGradient></defs><ellipse cx="22.5" cy="40.2" rx="13" ry="1.6" fill="#0F1B2D" opacity=".18"/><path d="M9 39h27a1.5 1.5 0 0 0 1.5-1.5v-1a2 2 0 0 0-2-2h-24a2 2 0 0 0-2 2v1A1.5 1.5 0 0 0 9 39z" fill="url(#medieval-wK)" stroke="#3B2F1E" stroke-width="1.6" stroke-linejoin="round"/><path d="M13.5 34.5c.5-6.5 3-11.5 4-13h10c1 1.5 3.5 6.5 4 13z" fill="url(#medieval-wK)" stroke="#3B2F1E" stroke-width="1.6" stroke-linejoin="round"/><path d="M15 19h15a1.25 1.25 0 0 1 0 2.5H15a1.25 1.25 0 0 1 0-2.5z" fill="url(#medieval-wK)" stroke="#3B2F1E" stroke-width="1.6" stroke-linejoin="round"/><path d="M15.5 19c-1-5 2-7.5 7-7.5s8 2.5 7 7.5z" fill="url(#medieval-wK)" stroke="#3B2F1E" stroke-width="1.6" stroke-linejoin="round"/><path d="M21.25 3.5h2.5V6h2.5v2.5h-2.5v3h-2.5v-3h-2.5V6h2.5z" fill="url(#medieval-wK)" stroke="#3B2F1E" stroke-width="1.6" stroke-linejoin="round"/></svg>
