<svg xmlns="http://www.w3.org/2000/svg" viewBox="0 0 45 45" width="45" height="45"><title>Tournament bQ</title><defs><linearGradient id="tournament-bQ" x1="0" y1="0" x2="1" y2="0"><stop offset="0" stop-color="#333333"/><stop offset=".35" stop-color="#1E1E1E"/><stop offset="1" stop-color="#000000"/></linearGradient></defs><ellipse cx="22.5" cy="40.2" rx="13" ry="1.6" fill="#0F1B2D" opacity=".18"/><path d="M9 39h27a1.5 1.5 0 0 0 1.5-1.5v-1a2 2 0 0 0-2-2h-24a2 2 0 0 0-2 2v1A1.5 1.5 0 0 0 9 39z" fill="url(#tournament-bQ)" stroke="#000000" stroke-width="1.5" stroke-linejoin="round"/><path d="M15 34.5c.5-6.5 3-12.5 4-15h7c1 2.5 3.5 8.5 4 15z" fill="url(#tournament-bQ)" stroke="#000000" stroke-width="1.5" stroke-linejoin="round"/><path d="M14 17h17a1.25 1.25 0 0 1 0 2.5H14a1.25 1.25 0 0 1 0-2.5z" fill="url(#tournament-bQ)" stroke="#000000" stroke-width="1.5" stroke-linejoin="round"/><path d="M13.5 17 11.5 10.5l5 3.5 2.5-5.5 3.5 4.5 3.5-4.5 2.5 5.5 5-3.5-2 6.5z" fill="url(#tournament-bQ)" stroke="#000000" stroke-width="1.5" stroke-linejoin="round"/><circle cx="11.5" cy="9.3" r="1.5" fill="url(#tournament-bQ)" stroke="#000000" stroke-width="1.5" stroke-linejoin="round"/><circle cx="19" cy="7.6" r="1.5" fill="url(#tournament-bQ)" stroke="#000000" stroke-width="1.5" stroke-linejoin="round"/><circle cx="22.5" cy="9.8" r="1.5" fill="url(#tournament-bQ)" stroke="#000000" stroke-width="1.5" stroke-linejoin="round"/><circle cx="26" cy="7.6" r="1.5" fill="url(#tournament-bQ)" stroke="#000000" stroke-width="1.5" stroke-linejoin="round"/><circle cx="33.5" cy="9.3" r="1.5" fill="url(#tournament-bQ)" stroke="#000000" stroke-width="1.5" stroke-linejoin="round"/></svg>
